{"glyphs":{"0":{"ha":694,"x_min":0,"x_max":521,"o":"m 87 608 l 434 608 l 434 521 l 521 521 l 521 -174 l 434 -174 l 434 -260 l 87 -260 l 87 -174 l 0 -174 l 0 521 l 87 521 l 87 608 m 174 434 l 174 -87 l 347 -87 l 347 434 l 174 434 z "},"1":{"ha":521,"x_min":0,"x_max":347,"o":"m 87 608 l 260 608 l 260 -87 l 347 -87 l 347 -260 l 0 -260 l 0 -87 l 87 -87 l 87 347 l 0 347 l 0 521 l 87 521 l 87 608 z "},"2":{"ha":694,"x_min":0,"x_max":521,"o":"m 87 608 l 434 608 l 434 521 l 521 521 l 521 174 l 434 174 l 434 87 l 347 87 l 347 0 l 260 0 l 260 -87 l 521 -87 l 521 -260 l 0 -260 l 0 0 l 87 0 l 87 87 l 174 87 l 174 174 l 260 174 l 260 260 l 347 260 l 347 434 l 174 434 l 174 347 l 0 347 l 0 521 l 87 521 l 87 608 z "},"3":{"ha":694,"x_min":0,"x_max":521,"o":"m 87 608 l 434 608 l 434 521 l 521 521 l 521 260 l 434 260 l 434 174 l 521 174 l 521 -174 l 434 -174 l 434 -260 l 87 -260 l 87 -174 l 0 -174 l 0 0 l 174 0 l 174 -87 l 347 -87 l 347 87 l 174 87 l 174 260 l 347 260 l 347 434 l 174 434 l 174 347 l 0 347 l 0 521 l 87 521 l 87 608 z "},"4":{"ha":694,"x_min":0,"x_max":521,"o":"m 0 608 l 174 608 l 174 260 l 347 260 l 347 608 l 521 608 l 521 -260 l 347 -260 l 347 87 l 0 87 l 0 608 z "},"5":{"ha":694,"x_min":0,"x_max":521,"o":"m 0 608 l 521 608 l 521 434 l 174 434 l 174 260 l 434 260 l 434 174 l 521 174 l 521 -174 l 434 -174 l 434 -260 l 87 -260 l 87 -174 l 0 -174 l 0 0 l 174 0 l 174 -87 l 347 -87 l 347 87 l 0 87 l 0 608 z "},"6":{"ha":694,"x_min":0,"x_max":521,"o":"m 87 608 l 434 608 l 434 521 l 521 521 l 521 347 l 347 347 l 347 434 l 174 434 l 174 260 l 434 260 l 434 174 l 521 174 l 521 -174 l 434 -174 l 434 -260 l 87 -260 l 87 -174 l 0 -174 l 0 521 l 87 521 l 87 608 m 174 87 l 174 -87 l 347 -87 l 347 87 l 174 87 z "},"7":{"ha":694,"x_min":0,"x_max":521,"o":"m 0 608 l 521 608 l 521 260 l 434 260 l 434 174 l 347 174 l 347 -260 l 174 -260 l 174 260 l 260 260 l 260 347 l 347 347 l 347 434 l 0 434 l 0 608 z "},"8":{"ha":694,"x_min":0,"x_max":521,"o":"m 87 608 l 434 608 l 434 521 l 521 521 l 521 260 l 434 260 l 434 174 l 521 174 l 521 -174 l 434 -174 l 434 -260 l 87 -260 l 87 -174 l 0 -174 l 0 174 l 87 174 l 87 260 l 0 260 l 0 521 l 87 521 l 87 608 m 174 434 l 174 260 l 347 260 l 347 434 l 174 434 m 174 87 l 174 -87 l 347 -87 l 347 87 l 174 87 z "},"9":{"ha":694,"x_min":0,"x_max":521,"o":"m 87 608 l 434 608 l 434 521 l 521 521 l 521 -174 l 434 -174 l 434 -260 l 87 -260 l 87 -174 l 0 -174 l 0 0 l 174 0 l 174 -87 l 347 -87 l 347 87 l 87 87 l 87 174 l 0 174 l 0 521 l 87 521 l 87 608 m 174 434 l 174 260 l 347 260 l 347 434 l 174 434 z "}," ":{"ha":347,"x_min":0,"x_max":0,"o":""},"!":{"ha":347,"x_min":0,"x_max":174,"o":"m 0 608 l 174 608 l 174 87 l 0 87 l 0 608 m 0 -87 l 174 -87 l 174 -260 l 0 -260 l 0 -87 z "},"\"":{"ha":781,"x_min":0,"x_max":608,"o":"m 0 694 l 260 694 l 260 434 l 174 434 l 174 347 l 87 347 l 87 434 l 0 434 l 0 694 m 347 694 l 608 694 l 608 434 l 521 434 l 521 347 l 434 347 l 434 434 l 347 434 l 347 694 z "},"#":{"ha":1042,"x_min":0,"x_max":868,"o":"m 174 608 l 347 608 l 347 434 l 521 434 l 521 608 l 694 608 l 694 434 l 868 434 l 868 260 l 694 260 l 694 87 l 868 87 l 868 -87 l 694 -87 l 694 -260 l 521 -260 l 521 -87 l 347 -87 l 347 -260 l 174 -260 l 174 -87 l 0 -87 l 0 87 l 174 87 l 174 260 l 0 260 l 0 434 l 174 434 l 174 608 m 347 260 l 347 87 l 521 87 l 521 260 l 347 260 z "},"$":{"ha":868,"x_min":0,"x_max":694,"o":"m 260 781 l 434 781 l 434 608 l 608 608 l 608 521 l 694 521 l 694 347 l 521 347 l 521 434 l 434 434 l 434 260 l 608 260 l 608 174 l 694 174 l 694 -174 l 608 -174 l 608 -260 l 434 -260 l 434 -434 l 260 -434 l 260 -260 l 87 -260 l 87 -174 l 0 -174 l 0 0 l 174 0 l 174 -87 l 260 -87 l 260 87 l 87 87 l 87 174 l 0 174 l 0 521 l 87 521 l 87 608 l 260 608 l 260 781 m 174 434 l 174 260 l 260 260 l 260 434 l 174 434 m 434 87 l 434 -87 l 521 -87 l 521 87 l 434 87 z "},"%":{"ha":1042,"x_min":0,"x_max":868,"o":"m 0 608 l 260 608 l 260 260 l 0 260 l 0 608 m 87 521 l 87 347 l 174 347 l 174 521 l 87 521 m 521 608 l 694 608 l 694 434 l 608 434 l 608 260 l 521 260 l 521 87 l 434 87 l 434 -87 l 347 -87 l 347 -260 l 174 -260 l 174 -87 l 260 -87 l 260 87 l 347 87 l 347 260 l 434 260 l 434 434 l 521 434 l 521 608 m 608 87 l 868 87 l 868 -260 l 608 -260 l 608 87 m 694 0 l 694 -174 l 781 -174 l 781 0 l 694 0 z "},"&":{"ha":781,"x_min":0,"x_max":608,"o":"m 87 608 l 434 608 l 434 521 l 521 521 l 521 347 l 347 347 l 347 434 l 174 434 l 174 347 l 260 347 l 260 260 l 347 260 l 347 174 l 434 174 l 434 260 l 608 260 l 608 87 l 521 87 l 521 -87 l 608 -87 l 608 -260 l 434 -260 l 434 -174 l 347 -174 l 347 -260 l 87 -260 l 87 -174 l 0 -174 l 0 87 l 87 87 l 87 260 l 0 260 l 0 521 l 87 521 l 87 608 m 174 87 l 174 -87 l 347 -87 l 347 87 l 174 87 z "},"'":{"ha":434,"x_min":0,"x_max":260,"o":"m 0 694 l 260 694 l 260 434 l 174 434 l 174 347 l 87 347 l 87 434 l 0 434 l 0 694 z "},"(":{"ha":521,"x_min":0,"x_max":347,"o":"m 174 608 l 347 608 l 347 434 l 260 434 l 260 347 l 174 347 l 174 0 l 260 0 l 260 -87 l 347 -87 l 347 -260 l 174 -260 l 174 -174 l 87 -174 l 87 -87 l 0 -87 l 0 434 l 87 434 l 87 521 l 174 521 l 174 608 z "},")":{"ha":521,"x_min":0,"x_max":347,"o":"m 0 608 l 174 608 l 174 521 l 260 521 l 260 434 l 347 434 l 347 -87 l 260 -87 l 260 -174 l 174 -174 l 174 -260 l 0 -260 l 0 -87 l 87 -87 l 87 0 l 174 0 l 174 347 l 87 347 l 87 434 l 0 434 l 0 608 z "},"*":{"ha":694,"x_min":0,"x_max":521,"o":"m 0 347 l 174 347 l 174 260 l 347 260 l 347 347 l 521 347 l 521 174 l 434 174 l 434 87 l 521 87 l 521 -87 l 347 -87 l 347 0 l 174 0 l 174 -87 l 0 -87 l 0 87 l 87 87 l 87 174 l 0 174 l 0 347 z "},"+":{"ha":694,"x_min":0,"x_max":521,"o":"m 174 434 l 347 434 l 347 260 l 521 260 l 521 87 l 347 87 l 347 -87 l 174 -87 l 174 87 l 0 87 l 0 260 l 174 260 l 174 434 z "},",":{"ha":347,"x_min":0,"x_max":174,"o":"m 0 -87 l 174 -87 l 174 -347 l 87 -347 l 87 -260 l 0 -260 l 0 -87 z "},"-":{"ha":694,"x_min":0,"x_max":521,"o":"m 0 260 l 521 260 l 521 87 l 0 87 l 0 260 z "},".":{"ha":347,"x_min":0,"x_max":174,"o":"m 0 -87 l 174 -87 l 174 -260 l 0 -260 l 0 -87 z "},"/":{"ha":694,"x_min":0,"x_max":521,"o":"m 347 608 l 521 608 l 521 434 l 434 434 l 434 260 l 347 260 l 347 87 l 260 87 l 260 -87 l 174 -87 l 174 -260 l 0 -260 l 0 -87 l 87 -87 l 87 87 l 174 87 l 174 260 l 260 260 l 260 434 l 347 434 l 347 608 z "},":":{"ha":347,"x_min":0,"x_max":174,"o":"m 0 434 l 174 434 l 174 260 l 0 260 l 0 434 m 0 87 l 174 87 l 174 -87 l 0 -87 l 0 87 z "},";":{"ha":347,"x_min":0,"x_max":174,"o":"m 0 434 l 174 434 l 174 260 l 0 260 l 0 434 m 0 87 l 174 87 l 174 -174 l 87 -174 l 87 -87 l 0 -87 l 0 87 z "},"<":{"ha":694,"x_min":0,"x_max":521,"o":"m 347 434 l 521 434 l 521 260 l 347 260 l 347 174 l 174 174 l 174 87 l 347 87 l 347 0 l 521 0 l 521 -174 l 347 -174 l 347 -87 l 174 -87 l 174 0 l 0 0 l 0 260 l 174 260 l 174 347 l 347 347 l 347 434 z "},"=":{"ha":694,"x_min":0,"x_max":521,"o":"m 0 434 l 521 434 l 521 260 l 0 260 l 0 434 m 0 87 l 521 87 l 521 -87 l 0 -87 l 0 87 z "},">":{"ha":694,"x_min":0,"x_max":521,"o":"m 0 434 l 174 434 l 174 347 l 347 347 l 347 260 l 521 260 l 521 0 l 347 0 l 347 -87 l 174 -87 l 174 -174 l 0 -174 l 0 0 l 174 0 l 174 87 l 347 87 l 347 174 l 174 174 l 174 260 l 0 260 l 0 434 z "},"?":{"ha":694,"x_min":0,"x_max":521,"o":"m 87 608 l 434 608 l 434 521 l 521 521 l 521 260 l 434 260 l 434 174 l 347 174 l 347 87 l 174 87 l 174 260 l 260 260 l 260 347 l 347 347 l 347 434 l 174 434 l 174 347 l 0 347 l 0 521 l 87 521 l 87 608 m 174 -87 l 347 -87 l 347 -260 l 174 -260 l 174 -87 z "},"@":{"ha":1215,"x_min":0,"x_max":1042,"o":"m 174 608 l 868 608 l 868 521 l 955 521 l 955 434 l 1042 434 l 1042 -174 l 955 -174 l 955 -260 l 694 -260 l 694 -174 l 608 -174 l 608 -260 l 347 -260 l 347 -174 l 260 -174 l 260 260 l 347 260 l 347 347 l 694 347 l 694 260 l 781 260 l 781 -87 l 868 -87 l 868 347 l 781 347 l 781 434 l 260 434 l 260 347 l 174 347 l 174 -260 l 260 -260 l 260 -347 l 868 -347 l 868 -521 l 174 -521 l 174 -434 l 87 -434 l 87 -347 l 0 -347 l 0 434 l 87 434 l 87 521 l 174 521 l 174 608 m 434 174 l 434 -87 l 608 -87 l 608 174 l 434 174 z "},"A":{"ha":694,"x_min":0,"x_max":521,"o":"m 87 608 l 434 608 l 434 521 l 521 521 l 521 -260 l 347 -260 l 347 87 l 174 87 l 174 -260 l 0 -260 l 0 521 l 87 521 l 87 608 m 174 434 l 174 260 l 347 260 l 347 434 l 174 434 z "},"B":{"ha":694,"x_min":0,"x_max":521,"o":"m 0 608 l 434 608 l 434 521 l 521 521 l 521 260 l 434 260 l 434 87 l 521 87 l 521 -174 l 434 -174 l 434 -260 l 0 -260 l 0 608 m 174 434 l 174 260 l 347 260 l 347 434 l 174 434 m 174 87 l 174 -87 l 347 -87 l 347 87 l 174 87 z "},"C":{"ha":694,"x_min":0,"x_max":521,"o":"m 87 608 l 434 608 l 434 521 l 521 521 l 521 260 l 347 260 l 347 434 l 174 434 l 174 -87 l 347 -87 l 347 87 l 521 87 l 521 -174 l 434 -174 l 434 -260 l 87 -260 l 87 -174 l 0 -174 l 0 521 l 87 521 l 87 608 z "},"D":{"ha":694,"x_min":0,"x_max":521,"o":"m 0 608 l 434 608 l 434 521 l 521 521 l 521 -174 l 434 -174 l 434 -260 l 0 -260 l 0 608 m 174 434 l 174 -87 l 347 -87 l 347 434 l 174 434 z "},"E":{"ha":694,"x_min":0,"x_max":521,"o":"m 0 608 l 521 608 l 521 434 l 174 434 l 174 260 l 434 260 l 434 87 l 174 87 l 174 -87 l 521 -87 l 521 -260 l 0 -260 l 0 608 z "},"F":{"ha":694,"x_min":0,"x_max":521,"o":"m 0 608 l 521 608 l 521 434 l 174 434 l 174 260 l 434 260 l 434 87 l 174 87 l 174 -260 l 0 -260 l 0 608 z "},"G":{"ha":694,"x_min":0,"x_max":521,"o":"m 87 608 l 434 608 l 434 521 l 521 521 l 521 347 l 347 347 l 347 434 l 174 434 l 174 -87 l 347 -87 l 347 87 l 260 87 l 260 260 l 521 260 l 521 -174 l 434 -174 l 434 -260 l 87 -260 l 87 -174 l 0 -174 l 0 521 l 87 521 l 87 608 z "},"H":{"ha":694,"x_min":0,"x_max":521,"o":"m 0 608 l 174 608 l 174 260 l 347 260 l 347 608 l 521 608 l 521 -260 l 347 -260 l 347 87 l 174 87 l 174 -260 l 0 -260 l 0 608 z "},"I":{"ha":694,"x_min":0,"x_max":521,"o":"m 0 608 l 521 608 l 521 434 l 347 434 l 347 -87 l 521 -87 l 521 -260 l 0 -260 l 0 -87 l 174 -87 l 174 434 l 0 434 l 0 608 z "},"J":{"ha":694,"x_min":0,"x_max":521,"o":"m 347 608 l 521 608 l 521 -174 l 434 -174 l 434 -260 l 87 -260 l 87 -174 l 0 -174 l 0 87 l 174 87 l 174 -87 l 347 -87 l 347 608 z "},"K":{"ha":694,"x_min":0,"x_max":521,"o":"m 0 608 l 174 608 l 174 260 l 260 260 l 260 434 l 347 434 l 347 608 l 521 608 l 521 434 l 434 434 l 434 260 l 347 260 l 347 174 l 434 174 l 434 87 l 521 87 l 521 -260 l 347 -260 l 347 0 l 260 0 l 260 87 l 174 87 l 174 -260 l 0 -260 l 0 608 z "},"L":{"ha":694,"x_min":0,"x_max":521,"o":"m 0 608 l 174 608 l 174 -87 l 521 -87 l 521 -260 l 0 -260 l 0 608 z "},"M":{"ha":868,"x_min":0,"x_max":694,"o":"m 0 608 l 174 608 l 174 434 l 260 434 l 260 347 l 434 347 l 434 434 l 521 434 l 521 608 l 694 608 l 694 -260 l 521 -260 l 521 174 l 434 174 l 434 87 l 260 87 l 260 174 l 174 174 l 174 -260 l 0 -260 l 0 608 z "},"N":{"ha":694,"x_min":0,"x_max":521,"o":"m 0 608 l 174 608 l 174 434 l 260 434 l 260 260 l 347 260 l 347 608 l 521 608 l 521 -260 l 347 -260 l 347 -87 l 260 -87 l 260 87 l 174 87 l 174 -260 l 0 -260 l 0 608 z "},"O":{"ha":694,"x_min":0,"x_max":521,"o":"m 87 608 l 434 608 l 434 521 l 521 521 l 521 -174 l 434 -174 l 434 -260 l 87 -260 l 87 -174 l 0 -174 l 0 521 l 87 521 l 87 608 m 174 434 l 174 -87 l 347 -87 l 347 434 l 174 434 z "},"P":{"ha":694,"x_min":0,"x_max":521,"o":"m 0 608 l 434 608 l 434 521 l 521 521 l 521 174 l 434 174 l 434 87 l 174 87 l 174 -260 l 0 -260 l 0 608 m 174 434 l 174 260 l 347 260 l 347 434 l 174 434 z "},"Q":{"ha":694,"x_min":0,"x_max":521,"o":"m 87 608 l 434 608 l 434 521 l 521 521 l 521 -174 l 434 -174 l 434 -260 l 521 -260 l 521 -347 l 347 -347 l 347 -260 l 87 -260 l 87 -174 l 0 -174 l 0 521 l 87 521 l 87 608 m 174 434 l 174 -87 l 260 -87 l 260 0 l 347 0 l 347 434 l 174 434 z "},"R":{"ha":694,"x_min":0,"x_max":521,"o":"m 0 608 l 434 608 l 434 521 l 521 521 l 521 174 l 434 174 l 434 87 l 521 87 l 521 -260 l 347 -260 l 347 87 l 174 87 l 174 -260 l 0 -260 l 0 608 m 174 434 l 174 260 l 347 260 l 347 434 l 174 434 z "},"S":{"ha":694,"x_min":0,"x_max":521,"o":"m 87 608 l 434 608 l 434 521 l 521 521 l 521 347 l 347 347 l 347 434 l 174 434 l 174 260 l 347 260 l 347 174 l 521 174 l 521 -174 l 434 -174 l 434 -260 l 87 -260 l 87 -174 l 0 -174 l 0 0 l 174 0 l 174 -87 l 347 -87 l 347 87 l 174 87 l 174 174 l 0 174 l 0 521 l 87 521 l 87 608 z "},"T":{"ha":694,"x_min":0,"x_max":521,"o":"m 0 608 l 521 608 l 521 434 l 347 434 l 347 -260 l 174 -260 l 174 434 l 0 434 l 0 608 z "},"U":{"ha":694,"x_min":0,"x_max":521,"o":"m 0 608 l 174 608 l 174 -87 l 347 -87 l 347 608 l 521 608 l 521 -174 l 434 -174 l 434 -260 l 87 -260 l 87 -174 l 0 -174 l 0 608 z "},"V":{"ha":694,"x_min":0,"x_max":521,"o":"m 0 608 l 174 608 l 174 0 l 347 0 l 347 608 l 521 608 l 521 0 l 434 0 l 434 -174 l 347 -174 l 347 -260 l 174 -260 l 174 -174 l 87 -174 l 87 0 l 0 0 l 0 608 z "},"W":{"ha":868,"x_min":0,"x_max":694,"o":"m 0 608 l 174 608 l 174 0 l 260 0 l 260 174 l 434 174 l 434 0 l 521 0 l 521 608 l 694 608 l 694 -174 l 608 -174 l 608 -260 l 434 -260 l 434 -174 l 260 -174 l 260 -260 l 87 -260 l 87 -174 l 0 -174 l 0 608 z "},"X":{"ha":694,"x_min":0,"x_max":521,"o":"m 0 608 l 174 608 l 174 347 l 347 347 l 347 608 l 521 608 l 521 260 l 434 260 l 434 87 l 521 87 l 521 -260 l 347 -260 l 347 0 l 174 0 l 174 -260 l 0 -260 l 0 87 l 87 87 l 87 260 l 0 260 l 0 608 z "},"Y":{"ha":694,"x_min":0,"x_max":521,"o":"m 0 608 l 174 608 l 174 260 l 347 260 l 347 608 l 521 608 l 521 174 l 434 174 l 434 87 l 347 87 l 347 -260 l 174 -260 l 174 87 l 87 87 l 87 174 l 0 174 l 0 608 z "},"Z":{"ha":694,"x_min":0,"x_max":521,"o":"m 0 608 l 521 608 l 521 260 l 434 260 l 434 174 l 347 174 l 347 87 l 260 87 l 260 0 l 174 0 l 174 -87 l 521 -87 l 521 -260 l 0 -260 l 0 87 l 87 87 l 87 174 l 174 174 l 174 260 l 260 260 l 260 347 l 347 347 l 347 434 l 0 434 l 0 608 z "},"[":{"ha":521,"x_min":0,"x_max":347,"o":"m 0 608 l 347 608 l 347 434 l 174 434 l 174 -87 l 347 -87 l 347 -260 l 0 -260 l 0 608 z "},"\\":{"ha":694,"x_min":0,"x_max":521,"o":"m 0 608 l 174 608 l 174 434 l 260 434 l 260 260 l 347 260 l 347 87 l 434 87 l 434 -87 l 521 -87 l 521 -260 l 347 -260 l 347 -87 l 260 -87 l 260 87 l 174 87 l 174 260 l 87 260 l 87 434 l 0 434 l 0 608 z "},"]":{"ha":521,"x_min":0,"x_max":347,"o":"m 0 608 l 347 608 l 347 -260 l 0 -260 l 0 -87 l 174 -87 l 174 434 l 0 434 l 0 608 z "},"_":{"ha":694,"x_min":0,"x_max":521,"o":"m 0 -87 l 521 -87 l 521 -260 l 0 -260 l 0 -87 z "},"a":{"ha":781,"x_min":0,"x_max":608,"o":"m 87 347 l 434 347 l 434 260 l 521 260 l 521 -87 l 608 -87 l 608 -260 l 434 -260 l 434 -174 l 347 -174 l 347 -260 l 87 -260 l 87 -174 l 0 -174 l 0 260 l 87 260 l 87 347 m 174 174 l 174 -87 l 347 -87 l 347 174 l 174 174 z "},"b":{"ha":694,"x_min":0,"x_max":521,"o":"m 0 608 l 174 608 l 174 347 l 434 347 l 434 260 l 521 260 l 521 -174 l 434 -174 l 434 -260 l 0 -260 l 0 608 m 174 174 l 174 -87 l 347 -87 l 347 174 l 174 174 z "},"c":{"ha":694,"x_min":0,"x_max":521,"o":"m 87 347 l 434 347 l 434 260 l 521 260 l 521 87 l 347 87 l 347 174 l 174 174 l 174 -87 l 347 -87 l 347 0 l 521 0 l 521 -174 l 434 -174 l 434 -260 l 87 -260 l 87 -174 l 0 -174 l 0 260 l 87 260 l 87 347 z "},"d":{"ha":781,"x_min":0,"x_max":608,"o":"m 347 608 l 521 608 l 521 -87 l 608 -87 l 608 -260 l 434 -260 l 434 -174 l 347 -174 l 347 -260 l 87 -260 l 87 -174 l 0 -174 l 0 260 l 87 260 l 87 347 l 347 347 l 347 608 m 174 174 l 174 -87 l 347 -87 l 347 174 l 174 174 z "},"e":{"ha":694,"x_min":0,"x_max":521,"o":"m 87 347 l 434 347 l 434 260 l 521 260 l 521 0 l 174 0 l 174 -174 l 347 -174 l 347 -87 l 521 -87 l 521 -260 l 87 -260 l 87 -174 l 0 -174 l 0 260 l 87 260 l 87 347 m 174 260 l 174 87 l 347 87 l 347 260 l 174 260 z "},"f":{"ha":608,"x_min":0,"x_max":434,"o":"m 87 608 l 347 608 l 347 521 l 434 521 l 434 347 l 260 347 l 260 434 l 174 434 l 174 260 l 347 260 l 347 87 l 174 87 l 174 -260 l 0 -260 l 0 521 l 87 521 l 87 608 z "},"g":{"ha":694,"x_min":0,"x_max":521,"o":"m 87 347 l 347 347 l 347 260 l 434 260 l 434 347 l 521 347 l 521 -434 l 434 -434 l 434 -521 l 87 -521 l 87 -434 l 0 -434 l 0 -260 l 87 -260 l 87 -174 l 0 -174 l 0 260 l 87 260 l 87 347 m 174 174 l 174 -87 l 347 -87 l 347 174 l 174 174 m 174 -260 l 174 -347 l 347 -347 l 347 -260 l 174 -260 z "},"h":{"ha":694,"x_min":0,"x_max":521,"o":"m 0 608 l 174 608 l 174 347 l 434 347 l 434 260 l 521 260 l 521 -260 l 347 -260 l 347 174 l 174 174 l 174 -260 l 0 -260 l 0 608 z "},"i":{"ha":347,"x_min":0,"x_max":174,"o":"m 0 608 l 174 608 l 174 434 l 0 434 l 0 608 m 0 347 l 174 347 l 174 -260 l 0 -260 l 0 347 z "},"j":{"ha":694,"x_min":0,"x_max":521,"o":"m 347 608 l 521 608 l 521 434 l 347 434 l 347 608 m 347 347 l 521 347 l 521 -434 l 434 -434 l 434 -521 l 87 -521 l 87 -434 l 0 -434 l 0 -260 l 174 -260 l 174 -347 l 347 -347 l 347 347 z "},"k":{"ha":608,"x_min":0,"x_max":434,"o":"m 0 608 l 174 608 l 174 87 l 260 87 l 260 347 l 434 347 l 434 87 l 347 87 l 347 0 l 434 0 l 434 -260 l 260 -260 l 260 -87 l 174 -87 l 174 -260 l 0 -260 l 0 608 z "},"l":{"ha":347,"x_min":0,"x_max":174,"o":"m 0 608 l 174 608 l 174 -260 l 0 -260 l 0 608 z "},"m":{"ha":1042,"x_min":0,"x_max":868,"o":"m 0 347 l 174 347 l 174 260 l 260 260 l 260 347 l 521 347 l 521 260 l 608 260 l 608 347 l 781 347 l 781 260 l 868 260 l 868 -260 l 694 -260 l 694 174 l 521 174 l 521 -260 l 347 -260 l 347 174 l 174 174 l 174 -260 l 0 -260 l 0 347 z "},"n":{"ha":694,"x_min":0,"x_max":521,"o":"m 0 347 l 174 347 l 174 260 l 260 260 l 260 347 l 434 347 l 434 260 l 521 260 l 521 -260 l 347 -260 l 347 174 l 174 174 l 174 -260 l 0 -260 l 0 347 z "},"o":{"ha":694,"x_min":0,"x_max":521,"o":"m 87 347 l 434 347 l 434 260 l 521 260 l 521 -174 l 434 -174 l 434 -260 l 87 -260 l 87 -174 l 0 -174 l 0 260 l 87 260 l 87 347 m 174 174 l 174 -87 l 347 -87 l 347 174 l 174 174 z "},"p":{"ha":694,"x_min":0,"x_max":521,"o":"m 87 347 l 434 347 l 434 260 l 521 260 l 521 -174 l 434 -174 l 434 -260 l 174 -260 l 174 -521 l 0 -521 l 0 260 l 87 260 l 87 347 m 174 174 l 174 -87 l 347 -87 l 347 174 l 174 174 z "},"q":{"ha":694,"x_min":0,"x_max":521,"o":"m 87 347 l 434 347 l 434 260 l 521 260 l 521 -521 l 347 -521 l 347 -260 l 87 -260 l 87 -174 l 0 -174 l 0 260 l 87 260 l 87 347 m 174 174 l 174 -87 l 347 -87 l 347 174 l 174 174 z "},"r":{"ha":694,"x_min":0,"x_max":521,"o":"m 0 347 l 174 347 l 174 260 l 260 260 l 260 347 l 434 347 l 434 260 l 521 260 l 521 87 l 347 87 l 347 174 l 174 174 l 174 -260 l 0 -260 l 0 347 z "},"s":{"ha":694,"x_min":0,"x_max":521,"o":"m 87 347 l 521 347 l 521 174 l 347 174 l 347 260 l 174 260 l 174 174 l 260 174 l 260 87 l 434 87 l 434 0 l 521 0 l 521 -174 l 434 -174 l 434 -260 l 0 -260 l 0 -87 l 174 -87 l 174 -174 l 347 -174 l 347 -87 l 260 -87 l 260 0 l 87 0 l 87 87 l 0 87 l 0 260 l 87 260 l 87 347 z "},"t":{"ha":521,"x_min":0,"x_max":347,"o":"m 0 608 l 174 608 l 174 434 l 347 434 l 347 260 l 174 260 l 174 -87 l 347 -87 l 347 -260 l 87 -260 l 87 -174 l 0 -174 l 0 608 z "},"u":{"ha":781,"x_min":0,"x_max":608,"o":"m 0 347 l 174 347 l 174 -87 l 347 -87 l 347 347 l 521 347 l 521 -87 l 608 -87 l 608 -260 l 434 -260 l 434 -174 l 347 -174 l 347 -260 l 87 -260 l 87 -174 l 0 -174 l 0 347 z "},"v":{"ha":694,"x_min":0,"x_max":521,"o":"m 0 347 l 174 347 l 174 -87 l 347 -87 l 347 347 l 521 347 l 521 -174 l 434 -174 l 434 -260 l 87 -260 l 87 -174 l 0 -174 l 0 347 z "},"w":{"ha":1042,"x_min":0,"x_max":868,"o":"m 0 347 l 174 347 l 174 -87 l 347 -87 l 347 347 l 521 347 l 521 -87 l 694 -87 l 694 347 l 868 347 l 868 -174 l 781 -174 l 781 -260 l 521 -260 l 521 -174 l 347 -174 l 347 -260 l 87 -260 l 87 -174 l 0 -174 l 0 347 z "},"x":{"ha":781,"x_min":0,"x_max":608,"o":"m 0 347 l 260 347 l 260 174 l 347 174 l 347 347 l 608 347 l 608 174 l 521 174 l 521 87 l 434 87 l 434 0 l 521 0 l 521 -87 l 608 -87 l 608 -260 l 347 -260 l 347 -87 l 260 -87 l 260 -260 l 0 -260 l 0 -87 l 87 -87 l 87 0 l 174 0 l 174 87 l 87 87 l 87 174 l 0 174 l 0 347 z "},"y":{"ha":694,"x_min":0,"x_max":521,"o":"m 0 347 l 174 347 l 174 -87 l 347 -87 l 347 347 l 521 347 l 521 -434 l 434 -434 l 434 -521 l 87 -521 l 87 -434 l 0 -434 l 0 -260 l 87 -260 l 87 -174 l 0 -174 l 0 347 m 174 -260 l 174 -347 l 347 -347 l 347 -260 l 174 -260 z "},"z":{"ha":694,"x_min":0,"x_max":521,"o":"m 0 347 l 521 347 l 521 87 l 434 87 l 434 0 l 260 0 l 260 -87 l 521 -87 l 521 -260 l 0 -260 l 0 0 l 87 0 l 87 87 l 260 87 l 260 174 l 0 174 l 0 347 z "},"{":{"ha":694,"x_min":0,"x_max":521,"o":"m 260 608 l 521 608 l 521 434 l 347 434 l 347 260 l 260 260 l 260 87 l 347 87 l 347 -87 l 521 -87 l 521 -260 l 260 -260 l 260 -174 l 174 -174 l 174 0 l 87 0 l 87 87 l 0 87 l 0 260 l 87 260 l 87 347 l 174 347 l 174 521 l 260 521 l 260 608 z "},"|":{"ha":347,"x_min":0,"x_max":174,"o":"m 0 608 l 174 608 l 174 260 l 0 260 l 0 608 m 0 87 l 174 87 l 174 -260 l 0 -260 l 0 87 z "},"}":{"ha":694,"x_min":0,"x_max":521,"o":"m 0 608 l 260 608 l 260 521 l 347 521 l 347 347 l 434 347 l 434 260 l 521 260 l 521 87 l 434 87 l 434 0 l 347 0 l 347 -174 l 260 -174 l 260 -260 l 0 -260 l 0 -87 l 174 -87 l 174 87 l 260 87 l 260 260 l 174 260 l 174 434 l 0 434 l 0 608 z "}}}
